<svg data-v-fde0c5aa="" xmlns="http://www.w3.org/2000/svg" viewBox="0 0 300 300" class="iconLeftSlogan"><!----><defs data-v-fde0c5aa=""><linearGradient data-v-fde0c5aa="" gradientTransform="rotate(25)" id="3e61a69f-5b38-4b49-ad75-3eda3036acba" x1="0%" y1="0%" x2="100%" y2="0%"><stop data-v-fde0c5aa="" offset="0%" stop-color="#6566CE" stop-opacity="1"></stop><stop data-v-fde0c5aa="" offset="100%" stop-color="#DBC1D0" stop-opacity="1"></stop></linearGradient></defs><rect data-v-fde0c5aa="" fill="url(#3e61a69f-5b38-4b49-ad75-3eda3036acba)" x="0" y="0" width="300px" height="300px" class="logo-background-square"></rect><defs data-v-fde0c5aa=""><!----></defs><g data-v-fde0c5aa="" id="3b4ca299-284b-4837-a4e3-41e8900f35a4" fill="#ffffff" transform="matrix(2.413595977830382,0,0,2.413595977830382,97.25121672386508,120.79984302960982)"><path d="M5.41 9.68L5.41 9.68Q3.06 3.78 2.60 3.82L2.60 3.82L2.60 3.82Q2.14 3.86 0.42 5.35L0.42 5.35L0.62 5.50L0.62 5.50Q1.70 4.71 2.11 5.52L2.11 5.52L2.11 5.52Q1.33 6.28 1.31 6.60L1.31 6.60L0.63 10.38L0.50 11.19L0.50 11.19Q0.18 11.90-0.94 12.90L-0.94 12.90L-0.78 12.93L-0.78 12.93Q-0.36 12.66 1.46 12.71L1.46 12.71L2.82 11.43L2.68 11.31L2.68 11.31Q2.30 11.55 0.76 11.48L0.76 11.48L0.76 11.48Q1.33 11.00 1.87 10.00L1.87 10.00L2.53 6.28L4.88 11.61L4.88 11.61Q4.57 12.11 3.58 12.88L3.58 12.88L3.75 12.91L3.75 12.91Q4.16 12.63 5.99 12.68L5.99 12.68L7.35 11.38L7.21 11.25L7.21 11.25Q6.84 11.49 5.51 11.41L5.51 11.41L5.51 11.41Q5.86 10.93 6.41 9.91L6.41 9.91L7.31 4.97L7.33 4.96L8.79 3.90L8.77 3.76L6.23 3.77L4.72 5.39L4.93 5.49L4.93 5.49Q5.24 5.02 5.73 5.00L5.73 5.00L6.97 5.00L6.97 5.00Q6.20 5.48 5.93 6.49L5.93 6.49L5.41 9.68ZM10.83 6.52L10.83 6.52Q9.90 7.02 8.93 8.07L8.93 8.07L8.93 8.07Q7.96 9.11 7.76 9.85L7.76 9.85L7.76 9.85Q7.56 10.59 8.13 11.61L8.13 11.61L8.13 11.61Q8.71 12.63 9.13 12.68L9.13 12.68L9.13 12.68Q10.02 12.04 10.58 11.63L10.58 11.63L10.58 11.63Q10.62 12.37 11.44 12.73L11.44 12.73L13.11 11.09L12.92 10.94L12.56 11.26L12.56 11.26Q12.18 11.42 12.02 11.14L12.02 11.14L12.02 11.14Q11.85 10.87 11.95 10.47L11.95 10.47L12.61 7.18L12.61 7.18Q12.73 6.68 13.11 6.51L13.11 6.51L10.83 6.52ZM9.82 7.60L11.48 7.60L11.15 8.07L11.09 8.32L10.51 11.25L10.51 11.25Q9.82 11.72 9.19 10.45L9.19 10.45L9.19 10.45Q8.57 9.17 9.82 7.60L9.82 7.60ZM16.80 3.93L16.80 3.93Q16.54 3.99 15.78 4.59L15.78 4.59L15.78 4.59Q15.03 5.20 14.85 5.85L14.85 5.85L14.70 6.68L14.37 6.70L13.10 8.19L13.30 8.35L13.30 8.35Q13.79 7.64 14.51 7.79L14.51 7.79L13.82 11.16L13.82 11.16Q13.60 12.24 14.59 12.77L14.59 12.77L16.39 11.21L16.27 10.99L16.27 10.99Q15.16 11.88 15.16 10.77L15.16 10.77L15.78 7.71L16.52 7.71L17.67 6.71L17.64 6.51L15.93 6.51L15.96 6.38L16.24 4.98L16.24 4.98Q16.30 4.58 16.91 4.07L16.91 4.07L16.80 3.93ZM19.89 6.52L19.89 6.52Q18.96 7.02 17.99 8.07L17.99 8.07L17.99 8.07Q17.02 9.11 16.82 9.85L16.82 9.85L16.82 9.85Q16.62 10.59 17.19 11.61L17.19 11.61L17.19 11.61Q17.77 12.63 18.18 12.68L18.18 12.68L18.18 12.68Q19.08 12.04 19.64 11.63L19.64 11.63L19.64 11.63Q19.68 12.37 20.49 12.73L20.49 12.73L22.17 11.09L21.98 10.94L21.62 11.26L21.62 11.26Q21.24 11.42 21.08 11.14L21.08 11.14L21.08 11.14Q20.91 10.87 21.01 10.47L21.01 10.47L21.67 7.18L21.67 7.18Q21.79 6.68 22.17 6.51L22.17 6.51L19.89 6.52ZM18.87 7.60L20.54 7.60L20.21 8.07L20.15 8.32L19.56 11.25L19.56 11.25Q18.87 11.72 18.25 10.45L18.25 10.45L18.25 10.45Q17.63 9.17 18.87 7.60L18.87 7.60ZM25.57 6.52L25.57 6.52L25.57 6.52Q25.04 6.63 24.51 6.92L24.51 6.92L24.51 6.92Q23.99 7.21 23.66 7.49L23.66 7.49L23.66 7.49Q23.34 7.77 23.20 8.30L23.20 8.30L23.20 8.30Q23.06 8.83 23.27 9.23L23.27 9.23L23.27 9.23Q23.47 9.64 24.54 10.00L24.54 10.00L24.54 10.00Q25.61 10.36 25.79 10.63L25.79 10.63L25.79 10.63Q25.96 10.90 25.82 11.16L25.82 11.16L25.82 11.16Q25.68 11.43 25.44 11.52L25.44 11.52L25.44 11.52Q25.19 11.61 24.69 11.61L24.69 11.61L24.69 11.61Q24.19 11.61 23.72 11.36L23.72 11.36L23.72 11.36Q23.25 11.11 23.15 10.76L23.15 10.76L23.15 10.76Q23.05 10.41 23.39 10.04L23.39 10.04L23.33 9.93L22.18 10.84L22.18 10.84Q21.96 11.20 22.21 11.69L22.21 11.69L22.21 11.69Q22.46 12.17 22.89 12.42L22.89 12.42L22.89 12.42Q23.33 12.67 23.94 12.70L23.94 12.70L23.94 12.70Q24.55 12.74 25.05 12.38L25.05 12.38L25.05 12.38Q25.54 12.03 26.06 11.49L26.06 11.49L26.06 11.49Q26.57 10.94 26.72 10.37L26.72 10.37L26.72 10.37Q26.87 9.79 26.65 9.35L26.65 9.35L26.65 9.35Q26.43 8.91 25.26 8.61L25.26 8.61L25.26 8.61Q24.08 8.31 24.08 7.89L24.08 7.89L24.08 7.89Q24.07 7.46 24.61 7.35L24.61 7.35L24.61 7.35Q25.14 7.23 25.66 7.48L25.66 7.48L25.66 7.48Q26.17 7.73 25.59 8.33L25.59 8.33L25.69 8.35L27.00 7.27L27.00 7.27Q26.87 6.84 26.49 6.62L26.49 6.62L26.49 6.62Q26.10 6.41 25.57 6.52ZM28.10 5.36L28.10 5.36L27.43 8.72L26.87 11.53L26.87 11.53Q26.69 12.54 27.45 12.67L27.45 12.67L29.00 11.40L28.89 11.27L28.43 11.60L28.43 11.60Q28.18 11.48 28.39 10.58L28.39 10.58L28.90 8.01L29.76 7.59L29.76 7.59Q30.95 7.55 30.67 8.99L30.67 8.99L30.17 11.50L30.17 11.50Q29.96 12.50 30.70 12.65L30.70 12.65L32.25 11.39L32.15 11.21L31.68 11.58L31.68 11.58Q31.45 11.55 31.61 10.77L31.61 10.77L32.16 8.06L32.16 8.06Q32.32 7.14 31.83 6.75L31.83 6.75L31.83 6.75Q31.34 6.37 30.71 6.47L30.71 6.47L28.90 7.69L29.44 4.98L29.44 4.98Q29.69 3.52 30.32 3.11L30.32 3.11L30.24 2.98L30.24 2.98Q28.38 3.85 28.10 5.36ZM35.55 6.52L35.55 6.52Q34.62 7.02 33.66 8.07L33.66 8.07L33.66 8.07Q32.69 9.11 32.49 9.85L32.49 9.85L32.49 9.85Q32.29 10.59 32.86 11.61L32.86 11.61L32.86 11.61Q33.43 12.63 33.85 12.68L33.85 12.68L33.85 12.68Q34.75 12.04 35.31 11.63L35.31 11.63L35.31 11.63Q35.35 12.37 36.16 12.73L36.16 12.73L37.84 11.09L37.65 10.94L37.28 11.26L37.28 11.26Q36.91 11.42 36.74 11.14L36.74 11.14L36.74 11.14Q36.58 10.87 36.67 10.47L36.67 10.47L37.34 7.18L37.34 7.18Q37.45 6.68 37.84 6.51L37.84 6.51L35.55 6.52ZM34.54 7.60L36.20 7.60L35.88 8.07L35.82 8.32L35.23 11.25L35.23 11.25Q34.54 11.72 33.92 10.45L33.92 10.45L33.92 10.45Q33.30 9.17 34.54 7.60L34.54 7.60ZM41.57 3.79L40.01 5.62L40.22 5.71L40.22 5.71Q40.54 5.24 41.02 5.22L41.02 5.22L43.85 5.23L43.85 5.23Q42.94 5.70 42.52 6.73L42.52 6.73L41.79 10.32L41.63 11.15L41.63 11.15Q41.30 11.87 40.15 12.90L40.15 12.90L40.31 12.93L40.31 12.93Q40.74 12.66 42.57 12.70L42.57 12.70L43.96 11.40L43.82 11.27L43.82 11.27Q43.44 11.51 41.90 11.45L41.90 11.45L41.90 11.45Q42.47 10.95 43.31 9.93L43.31 9.93L44.24 5.24L46.25 5.23L47.81 3.92L47.73 3.79L41.57 3.79ZM50.13 12.71L51.67 11.42L51.55 11.22L51.07 11.58L51.07 11.58Q50.53 11.55 50.80 10.46L50.80 10.46L51.37 7.66L51.37 7.66Q51.55 6.64 50.78 6.51L50.78 6.51L49.23 7.78L49.34 7.92L49.81 7.58L49.81 7.58Q50.11 7.68 49.85 8.61L49.85 8.61L49.33 11.17L48.59 11.71L48.59 11.71Q47.54 11.63 47.84 10.19L47.84 10.19L48.34 7.68L48.34 7.68Q48.55 6.69 47.81 6.54L47.81 6.54L46.26 7.79L46.36 7.97L46.83 7.60L46.83 7.60Q47.11 7.64 46.86 8.61L46.86 8.61L46.44 10.66L46.44 10.66Q46.24 11.69 46.71 12.21L46.71 12.21L46.71 12.21Q47.17 12.73 47.83 12.76L47.83 12.76L49.33 11.49L49.33 11.49Q49.26 12.58 50.13 12.71L50.13 12.71ZM55.16 3.09L55.16 3.09Q53.22 4.27 53.06 5.39L53.06 5.39L51.88 11.24L51.88 11.24Q51.77 12.32 52.64 12.71L52.64 12.71L54.26 11.40L54.18 11.27L54.18 11.27Q53.40 11.70 53.18 11.05L53.18 11.05L53.83 7.78L54.37 5.11L54.37 5.11Q54.60 3.76 55.25 3.24L55.25 3.24L55.16 3.09ZM57.96 3.09L57.96 3.09Q56.03 4.27 55.86 5.39L55.86 5.39L54.69 11.24L54.69 11.24Q54.57 12.32 55.45 12.71L55.45 12.71L57.06 11.40L56.98 11.27L56.98 11.27Q56.20 11.70 55.98 11.05L55.98 11.05L56.64 7.78L57.17 5.11L57.17 5.11Q57.40 3.76 58.05 3.24L58.05 3.24L57.96 3.09ZM60.14 6.60L60.14 6.60L60.14 6.60Q59.76 6.77 58.84 7.54L58.84 7.54L58.84 7.54Q57.92 8.31 57.54 9.52L57.54 9.52L57.54 9.52Q57.16 10.73 57.78 11.70L57.78 11.70L57.78 11.70Q58.41 12.67 59.02 12.75L59.02 12.75L59.02 12.75Q59.62 12.82 60.18 12.39L60.18 12.39L60.18 12.39Q60.74 11.96 61.56 10.90L61.56 10.90L61.56 10.90Q62.38 9.84 62.46 8.90L62.46 8.90L62.46 8.90Q62.54 7.96 62.01 7.30L62.01 7.30L62.01 7.30Q61.48 6.65 61.00 6.54L61.00 6.54L61.00 6.54Q60.53 6.43 60.14 6.60ZM59.59 7.67L59.59 7.67L59.59 7.67Q60.27 7.57 60.83 8.30L60.83 8.30L60.83 8.30Q61.39 9.03 61.32 9.85L61.32 9.85L61.32 9.85Q61.24 10.67 60.82 11.09L60.82 11.09L60.82 11.09Q60.40 11.50 59.75 11.43L59.75 11.43L59.75 11.43Q59.10 11.35 58.75 10.31L58.75 10.31L58.75 10.31Q58.41 9.27 58.66 8.52L58.66 8.52L58.66 8.52Q58.91 7.78 59.59 7.67ZM66.00 6.52L66.00 6.52L66.00 6.52Q65.47 6.63 64.95 6.92L64.95 6.92L64.95 6.92Q64.42 7.21 64.10 7.49L64.10 7.49L64.10 7.49Q63.77 7.77 63.63 8.30L63.63 8.30L63.63 8.30Q63.49 8.83 63.70 9.23L63.70 9.23L63.70 9.23Q63.91 9.64 64.98 10.00L64.98 10.00L64.98 10.00Q66.05 10.36 66.22 10.63L66.22 10.63L66.22 10.63Q66.39 10.90 66.25 11.16L66.25 11.16L66.25 11.16Q66.12 11.43 65.87 11.52L65.87 11.52L65.87 11.52Q65.63 11.61 65.12 11.61L65.12 11.61L65.12 11.61Q64.62 11.61 64.15 11.36L64.15 11.36L64.15 11.36Q63.68 11.11 63.58 10.76L63.58 10.76L63.58 10.76Q63.49 10.41 63.82 10.04L63.82 10.04L63.77 9.93L62.62 10.84L62.62 10.84Q62.40 11.20 62.64 11.69L62.64 11.69L62.64 11.69Q62.89 12.17 63.33 12.42L63.33 12.42L63.33 12.42Q63.77 12.67 64.38 12.70L64.38 12.70L64.38 12.70Q64.99 12.74 65.48 12.38L65.48 12.38L65.48 12.38Q65.97 12.03 66.49 11.49L66.49 11.49L66.49 11.49Q67.01 10.94 67.15 10.37L67.15 10.37L67.15 10.37Q67.30 9.79 67.08 9.35L67.08 9.35L67.08 9.35Q66.86 8.91 65.69 8.61L65.69 8.61L65.69 8.61Q64.52 8.31 64.51 7.89L64.51 7.89L64.51 7.89Q64.50 7.46 65.04 7.35L65.04 7.35L65.04 7.35Q65.58 7.23 66.09 7.48L66.09 7.48L66.09 7.48Q66.61 7.73 66.02 8.33L66.02 8.33L66.12 8.35L67.43 7.27L67.43 7.27Q67.31 6.84 66.92 6.62L66.92 6.62L66.92 6.62Q66.53 6.41 66.00 6.52Z"></path></g><defs data-v-fde0c5aa=""><!----></defs><g data-v-fde0c5aa="" id="0d2c13c4-5fd9-4dd7-8dec-f0cb8cae58dd" stroke="none" fill="#ffffff" transform="matrix(0.5546922551796654,0,0,0.5546922551796654,32.79843056103352,122.31724998505992)"><g clip-rule="evenodd"><path d="M12.983 10.59l17.018 88.223-5.872-59.049 29.021-1.892-.054-9.883L64.549 1 53.622 18.977z"></path><path d="M59.389 54.548l5.16-53.541-8.74 39.716-19.612 1.045 1.57 20.462-7.766 36.583 12.057-39.899z"></path><path d="M62.8 67.182l.549-10.453-15.979 3.755-.032 11.797-17.337 26.532 21.68-27.616zM65.711 62.394l14.841-4.731 1.509-12.532-15.899 2.095zM72.07 44.502l10.988-1.417 1.581-10.278-8.079-.373L64.549 1l8.43 30.967z"></path><path d="M87.413 31.294l1.256-9.506-9.544-2.694L64.549 1l14.483 22.437-.422 7z"></path></g></g><defs data-v-fde0c5aa=""><!----></defs><g data-v-fde0c5aa="" id="8eb7b00c-740a-495a-863d-11cb6b465785" fill="#ffffff" transform="matrix(0.6412683023517778,0,0,0.6412683023517778,94.57843733917365,159.67342422258776)"><path d="M4.31 3.64L4.31 3.64Q6.92 3.64 7.80 5.68L7.80 5.68L7.20 6.17L7.20 6.17Q6.85 5.18 6.15 4.73L6.15 4.73L6.15 4.73Q5.46 4.28 4.33 4.28L4.33 4.28L4.33 4.28Q3.51 4.28 2.91 4.54L2.91 4.54L2.91 4.54Q2.31 4.79 2.00 5.22L2.00 5.22L2.00 5.22Q1.68 5.66 1.68 6.20L1.68 6.20L1.68 6.20Q1.68 6.73 1.95 7.08L1.95 7.08L1.95 7.08Q2.21 7.43 2.85 7.68L2.85 7.68L2.85 7.68Q3.49 7.92 4.61 8.12L4.61 8.12L4.61 8.12Q6.41 8.43 7.17 9.02L7.17 9.02L7.17 9.02Q7.92 9.60 7.92 10.64L7.92 10.64L7.92 10.64Q7.92 11.38 7.49 11.96L7.49 11.96L7.49 11.96Q7.06 12.53 6.27 12.84L6.27 12.84L6.27 12.84Q5.47 13.16 4.45 13.16L4.45 13.16L4.45 13.16Q3.00 13.16 2.00 12.58L2.00 12.58L2.00 12.58Q0.99 12.00 0.63 10.95L0.63 10.95L1.25 10.47L1.25 10.47Q1.53 11.47 2.37 11.99L2.37 11.99L2.37 11.99Q3.22 12.52 4.47 12.52L4.47 12.52L4.47 12.52Q5.67 12.52 6.43 12.03L6.43 12.03L6.43 12.03Q7.20 11.54 7.20 10.68L7.20 10.68L7.20 10.68Q7.20 9.94 6.57 9.51L6.57 9.51L6.57 9.51Q5.95 9.07 4.41 8.81L4.41 8.81L4.41 8.81Q3.11 8.58 2.35 8.26L2.35 8.26L2.35 8.26Q1.60 7.94 1.27 7.46L1.27 7.46L1.27 7.46Q0.94 6.99 0.94 6.27L0.94 6.27L0.94 6.27Q0.94 5.56 1.35 4.96L1.35 4.96L1.35 4.96Q1.76 4.35 2.53 4.00L2.53 4.00L2.53 4.00Q3.29 3.64 4.31 3.64L4.31 3.64ZM20.79 3.64L20.79 3.64Q22.09 3.64 23.05 4.22L23.05 4.22L23.05 4.22Q24.01 4.80 24.53 5.87L24.53 5.87L24.53 5.87Q25.05 6.94 25.05 8.40L25.05 8.40L25.05 8.40Q25.05 9.86 24.53 10.93L24.53 10.93L24.53 10.93Q24.01 12.00 23.05 12.58L23.05 12.58L23.05 12.58Q22.09 13.16 20.79 13.16L20.79 13.16L20.79 13.16Q19.49 13.16 18.53 12.58L18.53 12.58L18.53 12.58Q17.57 12.00 17.05 10.93L17.05 10.93L17.05 10.93Q16.53 9.86 16.53 8.40L16.53 8.40L16.53 8.40Q16.53 6.94 17.05 5.87L17.05 5.87L17.05 5.87Q17.57 4.80 18.53 4.22L18.53 4.22L18.53 4.22Q19.49 3.64 20.79 3.64L20.79 3.64ZM20.79 4.28L20.79 4.28Q19.71 4.28 18.92 4.78L18.92 4.78L18.92 4.78Q18.13 5.28 17.70 6.21L17.70 6.21L17.70 6.21Q17.28 7.14 17.28 8.40L17.28 8.40L17.28 8.40Q17.28 9.66 17.70 10.59L17.70 10.59L17.70 10.59Q18.13 11.52 18.92 12.02L18.92 12.02L18.92 12.02Q19.71 12.52 20.79 12.52L20.79 12.52L20.79 12.52Q21.87 12.52 22.67 12.02L22.67 12.02L22.67 12.02Q23.46 11.52 23.89 10.59L23.89 10.59L23.89 10.59Q24.32 9.66 24.32 8.40L24.32 8.40L24.32 8.40Q24.32 7.14 23.89 6.21L23.89 6.21L23.89 6.21Q23.46 5.28 22.67 4.78L22.67 4.78L22.67 4.78Q21.87 4.28 20.79 4.28L20.79 4.28ZM40.67 4.42L35.07 4.42L35.07 7.99L39.51 7.99L39.51 8.65L35.07 8.65L35.07 13.02L34.37 13.02L34.37 3.78L40.67 3.78L40.67 4.42ZM55.85 3.78L55.85 4.42L52.47 4.42L52.47 13.02L51.77 13.02L51.77 4.42L48.40 4.42L48.40 3.78L55.85 3.78ZM69.19 6.54L67.33 13.02L66.46 13.02L63.57 3.78L64.33 3.78L66.89 12.45L69.31 3.78L70.13 3.78L72.55 12.46L75.14 3.78L75.85 3.78L72.97 13.02L72.10 13.02L70.24 6.54L69.72 4.54L69.71 4.54L69.19 6.54ZM90.48 13.02L89.32 10.12L84.90 10.12L83.75 13.02L83.01 13.02L86.70 3.78L87.53 3.78L91.22 13.02L90.48 13.02ZM85.16 9.48L89.07 9.48L87.46 5.45L87.12 4.47L87.11 4.47L86.77 5.42L85.16 9.48ZM106.89 13.02L106.06 13.02L103.42 9.02L103.38 9.02L100.65 9.02L100.65 13.02L99.95 13.02L99.95 3.78L103.38 3.78L103.38 3.78Q104.76 3.78 105.58 4.48L105.58 4.48L105.58 4.48Q106.40 5.18 106.40 6.40L106.40 6.40L106.40 6.40Q106.40 7.41 105.81 8.07L105.81 8.07L105.81 8.07Q105.22 8.74 104.20 8.93L104.20 8.93L106.89 13.02ZM100.65 4.42L100.65 8.36L103.36 8.36L103.36 8.36Q104.48 8.36 105.08 7.85L105.08 7.85L105.08 7.85Q105.67 7.35 105.67 6.40L105.67 6.40L105.67 6.40Q105.67 5.45 105.08 4.93L105.08 4.93L105.08 4.93Q104.48 4.42 103.36 4.42L103.36 4.42L100.65 4.42ZM116.61 12.38L122.44 12.38L122.44 13.02L115.91 13.02L115.91 3.78L122.22 3.78L122.22 4.42L116.61 4.42L116.61 7.99L121.04 7.99L121.04 8.65L116.61 8.65L116.61 12.38ZM143.56 12.38L149.39 12.38L149.39 13.02L142.86 13.02L142.86 3.78L149.17 3.78L149.17 4.42L143.56 4.42L143.56 7.99L147.99 7.99L147.99 8.65L143.56 8.65L143.56 12.38ZM165.52 3.78L165.52 13.02L164.65 13.02L159.75 5.77L159.07 4.54L159.05 4.54L159.10 5.70L159.10 13.02L158.42 13.02L158.42 3.78L159.31 3.78L164.19 11.02L164.89 12.26L164.86 11.10L164.86 3.78L165.52 3.78ZM178.99 8.50L182.78 8.50L182.78 13.02L182.22 13.02L182.20 11.41L182.20 11.41Q181.82 12.25 181.01 12.71L181.01 12.71L181.01 12.71Q180.21 13.16 179.02 13.16L179.02 13.16L179.02 13.16Q177.76 13.16 176.81 12.58L176.81 12.58L176.81 12.58Q175.87 12.00 175.36 10.92L175.36 10.92L175.36 10.92Q174.85 9.84 174.85 8.40L174.85 8.40L174.85 8.40Q174.85 6.96 175.37 5.88L175.37 5.88L175.37 5.88Q175.90 4.80 176.85 4.22L176.85 4.22L176.85 4.22Q177.80 3.64 179.06 3.64L179.06 3.64L179.06 3.64Q180.47 3.64 181.37 4.20L181.37 4.20L181.37 4.20Q182.27 4.76 182.71 5.91L182.71 5.91L182.07 6.24L182.07 6.24Q181.75 5.28 180.99 4.78L180.99 4.78L180.99 4.78Q180.22 4.28 179.06 4.28L179.06 4.28L179.06 4.28Q178.02 4.28 177.24 4.78L177.24 4.78L177.24 4.78Q176.46 5.28 176.02 6.21L176.02 6.21L176.02 6.21Q175.59 7.14 175.59 8.40L175.59 8.40L175.59 8.40Q175.59 10.32 176.51 11.42L176.51 11.42L176.51 11.42Q177.42 12.52 179.05 12.52L179.05 12.52L179.05 12.52Q180.05 12.52 180.75 12.12L180.75 12.12L180.75 12.12Q181.45 11.72 181.79 11.07L181.79 11.07L181.79 11.07Q182.13 10.42 182.13 9.67L182.13 9.67L182.13 9.16L178.99 9.16L178.99 8.50ZM192.96 3.78L192.96 13.02L192.26 13.02L192.26 3.78L192.96 3.78ZM209.97 3.78L209.97 13.02L209.10 13.02L204.20 5.77L203.52 4.54L203.50 4.54L203.55 5.70L203.55 13.02L202.87 13.02L202.87 3.78L203.76 3.78L208.64 11.02L209.34 12.26L209.31 11.10L209.31 3.78L209.97 3.78ZM220.58 12.38L226.42 12.38L226.42 13.02L219.88 13.02L219.88 3.78L226.20 3.78L226.20 4.42L220.58 4.42L220.58 7.99L225.02 7.99L225.02 8.65L220.58 8.65L220.58 12.38ZM236.15 12.38L241.99 12.38L241.99 13.02L235.45 13.02L235.45 3.78L241.77 3.78L241.77 4.42L236.15 4.42L236.15 7.99L240.59 7.99L240.59 8.65L236.15 8.65L236.15 12.38ZM257.96 13.02L257.14 13.02L254.49 9.02L254.45 9.02L251.72 9.02L251.72 13.02L251.02 13.02L251.02 3.78L254.45 3.78L254.45 3.78Q255.84 3.78 256.66 4.48L256.66 4.48L256.66 4.48Q257.47 5.18 257.47 6.40L257.47 6.40L257.47 6.40Q257.47 7.41 256.89 8.07L256.89 8.07L256.89 8.07Q256.30 8.74 255.28 8.93L255.28 8.93L257.96 13.02ZM251.72 4.42L251.72 8.36L254.44 8.36L254.44 8.36Q255.56 8.36 256.15 7.85L256.15 7.85L256.15 7.85Q256.75 7.35 256.75 6.40L256.75 6.40L256.75 6.40Q256.75 5.45 256.15 4.93L256.15 4.93L256.15 4.93Q255.56 4.42 254.44 4.42L254.44 4.42L251.72 4.42Z"></path></g></svg>